Cover: 
http://imgr.us/images/nfvhcw3qxbacobww8rt.jpg

Info:
Format : AVI
Format/Info : Audio Video Interleave
File size : 700 MiB
Duration : 1h 35mn
Overall bit rate mode : Variable
Overall bit rate : 1 021 Kbps
Writing application : VirtualDubMod 1.5.10.2 (build 2540/release)
Writing library : VirtualDubMod build 2540/release

Video
ID : 0
Format : MPEG-4 Visual
Format profile : Advanced Simple@L5
Format settings, BVOP : 2
Format settings, QPel : No
Format settings, GMC : No warppoints
Format settings, Matrix : Default (H.263)
Codec ID : XVID
Codec ID/Hint : XviD
Duration : 1h 35mn
Bit rate : 886 Kbps
Width : 640 pixels
Height : 272 pixels
Display aspect ratio : 2.35:1
Frame rate : 23.976 fps
Color space : YUV
Chroma subsampling : 4:2:0
Bit depth : 8 bits
Scan type : Progressive
Compression mode : Lossy
Bits/(Pixel*Frame) : 0.212
Stream size : 607 MiB (87%)
Writing library : XviD 61

Audio
ID : 1
Format : MPEG Audio
Format version : Version 1
Format profile : Layer 3
Mode : Joint stereo
Mode extension : MS Stereo
Codec ID : 55
Codec ID/Hint : MP3
Duration : 1h 35mn
Bit rate mode : Variable
Bit rate : 128 Kbps
Channel(s) : 2 channels
Sampling rate : 48.0 KHz
Compression mode : Lossy
Stream size : 84.3 MiB (12%)
Alignment : Aligned on interleaves
Interleave, duration : 24 ms (0.58 video frame)
Interleave, preload duration : 149 ms
Writing library : LAME3.98
Encoding settings : -m j -V 4 -q 2 -lowpass 17 --abr 128

Source: Retail BluRay
Size: 700MB
Subtitles: English
IMDb: http://www.imdb.com/title/tt1343727/

ALLiANCE - iMARS


Screens: 
http://imgr.us/images/egfavpxb1fhwl33u0ju.jpg 
http://imgr.us/images/ovfp63yyu6agobes4m64.jpg 
http://imgr.us/images/4rvh8ng9pd92248o4u3.jpg 
http://imgr.us/images/ax09gk7yqod82bp2byxx.jpg 
http://imgr.us/images/dpm5ri6lme7lzuwo1to.jpg
